<?xml version="1.0" encoding="UTF-8" standalone="no"?>
<!-- Created with Inkscape (http://www.inkscape.org/) -->

<svg
   xmlns:dc="http://purl.org/dc/elements/1.1/"
   xmlns:cc="http://creativecommons.org/ns#"
   xmlns:rdf="http://www.w3.org/1999/02/22-rdf-syntax-ns#"
   xmlns:svg="http://www.w3.org/2000/svg"
   xmlns="http://www.w3.org/2000/svg"
   xmlns:sodipodi="http://sodipodi.sourceforge.net/DTD/sodipodi-0.dtd"
   xmlns:inkscape="http://www.inkscape.org/namespaces/inkscape"
   width="85.203178mm"
   height="19.248955mm"
   viewBox="0 0 85.203179 19.248954"
   version="1.1"
   id="svg864"
   inkscape:version="0.92.2 2405546, 2018-03-11"
   sodipodi:docname="logo.svg">
  <defs
     id="defs858" />
  <sodipodi:namedview
     id="base"
     pagecolor="#7697c9"
     bordercolor="#666666"
     borderopacity="1.0"
     inkscape:pageopacity="0"
     inkscape:pageshadow="2"
     inkscape:zoom="1.6412029"
     inkscape:cx="201.31721"
     inkscape:cy="22.588995"
     inkscape:document-units="mm"
     inkscape:current-layer="layer1"
     showgrid="false"
     inkscape:pagecheckerboard="false"
     fit-margin-top="0"
     fit-margin-left="0"
     fit-margin-right="0"
     fit-margin-bottom="0"
     inkscape:window-width="1259"
     inkscape:window-height="1386"
     inkscape:window-x="3202"
     inkscape:window-y="35"
     inkscape:window-maximized="0" />
  <metadata
     id="metadata861">
    <rdf:RDF>
      <cc:Work
         rdf:about="">
        <dc:format>image/svg+xml</dc:format>
        <dc:type
           rdf:resource="http://purl.org/dc/dcmitype/StillImage" />
        <dc:title />
      </cc:Work>
    </rdf:RDF>
  </metadata>
  <g
     inkscape:label="Layer 1"
     inkscape:groupmode="layer"
     id="layer1"
     transform="translate(-48.230451,-134.51959)">
    <path
       style="opacity:1;vector-effect:none;fill:#0ccfff;fill-opacity:1;stroke:none;stroke-width:3.77952766;stroke-linecap:square;stroke-linejoin:miter;stroke-miterlimit:4;stroke-dasharray:none;stroke-dashoffset:12.85634518;stroke-opacity:1;paint-order:normal"
       d="M 36.376953,0 A 36.376421,36.376421 0 0 0 0,36.376953 a 36.376421,36.376421 0 0 0 36.376953,36.375 36.376421,36.376421 0 0 0 36.375,-36.375 A 36.376421,36.376421 0 0 0 36.376953,0 Z m 2.960938,6.9257812 C 36.106999,16.195715 52.947923,15.487146 38.992188,28.882812 43.488533,19.165458 28.198557,18.899514 39.337891,6.9257812 Z m -8.279297,5.9628908 c -2.209799,6.266835 9.035276,7.134337 -0.253906,15.998047 3.058015,-7.027351 -7.525515,-7.257927 0.253906,-15.998047 z m -17.355469,13.25 c 6.874791,0.005 10.413353,7.554687 22.578125,7.554687 11.954612,0 16.436903,-7.394433 22.626953,-7.542968 5.838671,0 10.408203,4.51824 10.408203,10.291015 0,2.64892 -1.216096,5.031722 -3.208984,7.128906 3.068942,9.632429 -11.043091,18.25586 -29.728516,18.25586 -18.062294,0 -33.0520067,-8.343878 -29.7167966,-18.289063 -2.0038715,-2.102664 -3.2265625,-4.477361 -3.2265625,-7.101562 0,-5.092006 3.8030877,-9.471319 8.8457031,-10.193359 0.491532,-0.0712 0.963556,-0.103847 1.421875,-0.103516 z m 2.050781,6.207031 c -1.63225,0.08052 -3.236549,0.738908 -4.4375,1.550781 -1.6415242,1.106268 0.01461,3.612052 1.683594,2.50586 2.217982,-1.476851 4.466641,-1.624205 5.712891,0.783203 0.557234,1.084346 1.322828,2.568133 3.49414,3.238281 1.995636,0.620145 3.370296,-0.04111 4.375,-0.521484 2.157604,-1.026558 3.016672,-0.497714 4.556641,1.132812 3.126584,3.301871 6.398533,3.400967 9.59375,0.115235 2.042305,-2.094615 2.880098,-2.008721 4.988281,-1.078125 3.590502,1.586683 6.160241,1.080985 8.353516,-2.185547 1.399971,-2.072164 2.806732,-2.856428 6.103515,-0.794922 v -0.002 c 1.592073,1.199546 3.409743,-1.218385 1.806641,-2.417969 -3.455985,-2.59132 -7.561191,-2.700058 -10.416016,1.527344 -1.408206,2.100208 -2.446607,2.076455 -4.628906,1.107422 -3.277565,-1.438337 -5.462162,-1.253858 -8.369141,1.738281 -2.11093,2.170469 -3.344999,1.911606 -5.236328,-0.08398 -2.429348,-2.56698 -4.695565,-3.392539 -8.052734,-1.78125 -2.045049,0.977385 -2.997275,0.34302 -3.886719,-1.38086 -1.395849,-2.705251 -3.542017,-3.556651 -5.640625,-3.453125 z m -0.210937,10.269531 c -2.049378,0.112336 -3.871094,1.599602 -3.871094,3.65625 0,4.007811 9.853677,10.064454 24.707031,10.064454 16.217636,0 24.703125,-6.548484 24.703125,-10.056641 0,-2.724699 -3.327833,-4.95264 -7.02539,-2.652344 -4.3344,2.684636 -9.063045,4.474609 -17.679688,4.474609 -9.624087,0 -16.022541,-3.911781 -18.767578,-5.111328 -0.674591,-0.297836 -1.38328,-0.412445 -2.066406,-0.375 z"
       transform="matrix(0.26458333,0,0,0.26458333,48.230451,134.51959)"
       id="path1535"
       inkscape:connector-curvature="0" />
    <g
       aria-label="!hotdog"
       transform="scale(0.9933366,1.0067081)"
       style="font-style:normal;font-weight:normal;font-size:22.38233948px;line-height:1.25;font-family:sans-serif;letter-spacing:0px;word-spacing:0px;fill:#000000;fill-opacity:1;stroke:none;stroke-width:0.26458332"
       id="text838">
      <path
         d="m 72.356707,148.11974 h 2.148705 v -2.40238 h -2.148705 z m 0.19398,-3.73039 h 1.760745 l 0.208902,-6.41628 h -2.163627 z"
         style="font-style:normal;font-variant:normal;font-weight:bold;font-stretch:normal;font-size:14.92156124px;font-family:Titillium;-inkscape-font-specification:'Titillium Bold';fill:#ffffff;fill-opacity:1;stroke-width:0.26458332"
         id="path2797" />
      <path
         d="m 78.434212,148.11974 v -5.61051 c 0,0 0.701314,-0.23875 1.357862,-0.23875 0.969902,0 1.119118,0.73116 1.119118,1.85028 v 3.99898 h 1.999489 v -4.04375 c 0,-2.283 -0.537176,-3.59609 -2.626195,-3.59609 -0.820686,0 -1.850274,0.53717 -1.850274,0.53717 v -3.34243 h -1.999489 v 10.4451 z"
         style="font-style:normal;font-variant:normal;font-weight:bold;font-stretch:normal;font-size:14.92156124px;font-family:Titillium;-inkscape-font-specification:'Titillium Bold';fill:#ffffff;fill-opacity:1;stroke-width:0.26458332"
         id="path2799" />
      <path
         d="m 87.726381,140.4799 c -2.596351,0 -3.431959,1.5966 -3.431959,3.89452 0,2.29792 0.835608,3.92437 3.431959,3.92437 2.596352,0 3.431959,-1.62645 3.431959,-3.92437 0,-2.29792 -0.835607,-3.89452 -3.431959,-3.89452 z m 0,6.11784 c -1.104195,0 -1.402626,-0.77592 -1.402626,-2.22332 0,-1.44739 0.298431,-2.19347 1.402626,-2.19347 1.104196,0 1.402627,0.74608 1.402627,2.19347 0,1.4474 -0.298431,2.22332 -1.402627,2.22332 z"
         style="font-style:normal;font-variant:normal;font-weight:bold;font-stretch:normal;font-size:14.92156124px;font-family:Titillium;-inkscape-font-specification:'Titillium Bold';fill:#ffffff;fill-opacity:1;stroke-width:0.26458332"
         id="path2801" />
      <path
         d="m 96.742735,142.36001 v -1.70105 h -1.835352 v -2.0741 h -1.999489 v 2.0741 h -0.880372 v 1.70105 h 0.880372 v 3.10369 c 0,2.1487 0.522255,2.83509 2.327764,2.83509 0.522254,0 1.521999,-0.22382 1.521999,-0.22382 l -0.08953,-1.59661 c 0,0 -0.716235,0.0298 -1.134039,0.0298 -0.626706,0 -0.626706,-0.3432 -0.626706,-1.08928 v -3.05892 z"
         style="font-style:normal;font-variant:normal;font-weight:bold;font-stretch:normal;font-size:14.92156124px;font-family:Titillium;-inkscape-font-specification:'Titillium Bold';fill:#ffffff;fill-opacity:1;stroke-width:0.26458332"
         id="path2803" />
      <path
         d="m 104.37185,137.67464 h -1.99949 v 3.01416 c 0,0 -1.05943,-0.2089 -1.61153,-0.2089 -2.029331,0 -3.088762,1.14896 -3.088762,3.8796 0,2.6262 0.656549,3.93929 2.909702,3.93929 0.761,0 1.80551,-0.49241 1.80551,-0.49241 v 0.31336 h 1.98457 z m -3.44688,8.83357 c -0.94006,0 -1.223569,-0.62671 -1.223569,-2.14871 0,-1.50708 0.462569,-2.1487 1.208649,-2.1487 0.64162,0 1.46231,0.14921 1.46231,0.14921 v 3.92437 c 0,0 -0.74608,0.22383 -1.44739,0.22383 z"
         style="font-style:normal;font-variant:normal;font-weight:bold;font-stretch:normal;font-size:14.92156124px;font-family:Titillium;-inkscape-font-specification:'Titillium Bold';fill:#ffffff;fill-opacity:1;stroke-width:0.26458332"
         id="path2805" />
      <path
         d="m 109.26356,140.4799 c -2.59635,0 -3.43196,1.5966 -3.43196,3.89452 0,2.29792 0.83561,3.92437 3.43196,3.92437 2.59635,0 3.43196,-1.62645 3.43196,-3.92437 0,-2.29792 -0.83561,-3.89452 -3.43196,-3.89452 z m 0,6.11784 c -1.1042,0 -1.40263,-0.77592 -1.40263,-2.22332 0,-1.44739 0.29843,-2.19347 1.40263,-2.19347 1.10419,0 1.40262,0.74608 1.40262,2.19347 0,1.4474 -0.29843,2.22332 -1.40262,2.22332 z"
         style="font-style:normal;font-variant:normal;font-weight:bold;font-stretch:normal;font-size:14.92156124px;font-family:Titillium;-inkscape-font-specification:'Titillium Bold';fill:#ffffff;fill-opacity:1;stroke-width:0.26458332"
         id="path2807" />
      <path
         d="m 117.36969,151.55169 c 1.92489,0 3.53641,-0.68639 3.53641,-2.50682 0,-1.67121 -0.71623,-2.23823 -3.2529,-2.25315 -1.26833,-0.0149 -1.44739,-0.10445 -1.44739,-0.49241 0,-0.19399 0.14922,-0.58195 0.14922,-0.58195 0.13429,0.0298 0.44765,0.0597 0.61178,0.0597 2.04426,0 3.14845,-0.53718 3.14845,-2.62619 0,-0.43273 -0.19398,-0.80577 -0.32827,-1.01467 l 1.11911,0.0895 v -1.59661 l -2.40237,0.0746 c 0,0 -0.85053,-0.19398 -1.50707,-0.19398 -1.74583,0 -3.13353,0.71623 -3.13353,2.64112 0,1.29817 0.49241,1.85027 1.01466,2.22331 0,0 -0.58194,0.82068 -0.58194,1.19372 0,0.46257 0.22383,0.91022 0.5521,1.13404 -0.74608,0.58194 -1.07435,1.08928 -1.07435,1.77567 0,1.67121 1.41755,2.07409 3.59609,2.07409 z m 0.11938,-3.02907 c 1.10419,0.0149 1.40262,0.0746 1.40262,0.64163 0,0.53717 -0.53717,0.74607 -1.50707,0.74607 -1.11912,0 -1.64138,-0.2089 -1.64138,-0.64162 0,-0.37304 0.14922,-0.59687 0.40289,-0.85053 0,0 0.92513,0.10445 1.34294,0.10445 z m -0.47749,-4.26757 c -0.80577,0 -1.14896,-0.40288 -1.14896,-1.10419 0,-0.70132 0.34319,-1.08928 1.14896,-1.08928 0.80576,0 1.13404,0.38796 1.13404,1.08928 0,0.70131 -0.32828,1.10419 -1.13404,1.10419 z"
         style="font-style:normal;font-variant:normal;font-weight:bold;font-stretch:normal;font-size:14.92156124px;font-family:Titillium;-inkscape-font-specification:'Titillium Bold';fill:#ffffff;fill-opacity:1;stroke-width:0.26458332"
         id="path2809" />
    </g>
  </g>
</svg>
